# Blender v2.79 (sub 0) OBJ File: ''
# www.blender.org
mtllib GolfHole.mtl
o Cube
v 0.000000 -0.106005 -1.000000
v 0.195090 -0.106005 -0.980785
v 0.382683 -0.106005 -0.923880
v 0.555570 -0.106005 -0.831470
v 0.707107 -0.106005 -0.707107
v 0.831470 -0.106005 -0.555570
v 0.923880 -0.106005 -0.382683
v 0.980785 -0.106005 -0.195090
v 1.000000 -0.106005 -0.000000
v 0.980785 -0.106005 0.195090
v 0.923880 -0.106005 0.382683
v 0.831470 -0.106005 0.555570
v 0.707107 -0.106005 0.707107
v 0.555570 -0.106005 0.831470
v 0.382683 -0.106005 0.923880
v 0.195090 -0.106005 0.980785
v -0.000000 -0.106005 1.000000
v -0.195091 -0.106005 0.980785
v -0.382684 -0.106005 0.923879
v -0.555571 -0.106005 0.831469
v -0.707107 -0.106005 0.707106
v -0.831470 -0.106005 0.555570
v -0.923880 -0.106005 0.382683
v -0.980785 -0.106005 0.195089
v -1.000000 -0.106005 -0.000001
v -0.980785 -0.106005 -0.195091
v -0.923879 -0.106005 -0.382684
v -0.831469 -0.106005 -0.555571
v -0.707106 -0.106005 -0.707108
v -0.555569 -0.106005 -0.831470
v -0.382682 -0.106005 -0.923880
v -0.195089 -0.106005 -0.980786
v 1.159325 -1.479024 -1.159325
v 1.159325 -1.479024 1.159325
v -1.159325 -1.479024 1.159324
v -1.159324 -1.479024 -1.159325
v 1.159325 1.479024 -1.159324
v 1.159324 1.479024 1.159325
v -1.159325 1.479024 1.159324
v -1.159325 1.479024 -1.159325
v 0.980785 1.393702 0.195090
v 1.000000 1.393702 -0.000000
v 0.980785 1.393702 -0.195090
v 0.923880 1.393702 0.382683
v 0.831470 1.393702 0.555570
v 0.707107 1.393702 0.707107
v 0.555570 1.393702 0.831470
v 0.195090 1.393702 0.980785
v 0.382683 1.393702 0.923880
v -0.000000 1.393702 1.000000
v -0.195091 1.393702 0.980785
v -0.555571 1.393702 0.831469
v -0.382684 1.393702 0.923879
v -0.923880 1.393702 0.382683
v -0.831470 1.393702 0.555570
v -0.707107 1.393702 0.707106
v -0.980785 1.393702 0.195089
v -1.000000 1.393702 -0.000001
v -0.980785 1.393702 -0.195091
v 0.923880 1.393702 -0.382683
v 0.831470 1.393702 -0.555570
v -0.923879 1.393702 -0.382684
v 0.707107 1.393702 -0.707107
v -0.831469 1.393702 -0.555571
v 0.555570 1.393702 -0.831470
v -0.707106 1.393702 -0.707108
v 0.382683 1.393702 -0.923880
v -0.555569 1.393702 -0.831470
v 0.195090 1.393702 -0.980785
v -0.382682 1.393702 -0.923880
v -0.195089 1.393702 -0.980786
v 0.000000 1.393702 -1.000000
vn -0.0980 -0.0000 0.9952
vn -0.2903 -0.0000 0.9569
vn -0.4714 0.0000 0.8819
vn -0.6344 0.0000 0.7730
vn -0.7730 0.0000 0.6344
vn -0.8819 0.0000 0.4714
vn -0.9569 0.0000 0.2903
vn -0.9952 0.0000 0.0980
vn -0.9952 0.0000 -0.0980
vn -0.9569 0.0000 -0.2903
vn -0.8819 0.0000 -0.4714
vn -0.7730 0.0000 -0.6344
vn -0.6344 0.0000 -0.7730
vn -0.4714 0.0000 -0.8819
vn -0.2903 0.0000 -0.9569
vn -0.0980 -0.0000 -0.9952
vn 0.0980 -0.0000 -0.9952
vn 0.2903 -0.0000 -0.9569
vn 0.4714 0.0000 -0.8819
vn 0.6344 0.0000 -0.7730
vn 0.7730 0.0000 -0.6344
vn 0.8819 0.0000 -0.4714
vn 0.9569 0.0000 -0.2903
vn 0.9952 -0.0000 -0.0980
vn 0.9952 -0.0000 0.0980
vn 0.9569 0.0000 0.2903
vn 0.8819 0.0000 0.4714
vn 0.7730 0.0000 0.6344
vn 0.6344 0.0000 0.7730
vn 0.4714 0.0000 0.8819
vn 0.2903 0.0000 0.9569
vn 0.0980 0.0000 0.9952
vn 0.0000 1.0000 0.0000
vn 0.0000 -1.0000 0.0000
vn -0.0000 0.9814 0.1918
vn 1.0000 0.0000 0.0000
vn -0.0000 -0.0000 1.0000
vn -1.0000 -0.0000 -0.0000
vn 0.0000 0.0000 -1.0000
vn 0.0000 0.9903 -0.1391
usemtl Material
s off
f 1//1 2//1 69//1 72//1
f 2//2 3//2 67//2 69//2
f 3//3 4//3 65//3 67//3
f 4//4 5//4 63//4 65//4
f 5//5 6//5 61//5 63//5
f 6//6 7//6 60//6 61//6
f 7//7 8//7 43//7 60//7
f 8//8 9//8 42//8 43//8
f 9//9 10//9 41//9 42//9
f 10//10 11//10 44//10 41//10
f 11//11 12//11 45//11 44//11
f 12//12 13//12 46//12 45//12
f 13//13 14//13 47//13 46//13
f 14//14 15//14 49//14 47//14
f 15//15 16//15 48//15 49//15
f 16//16 17//16 50//16 48//16
f 17//17 18//17 51//17 50//17
f 18//18 19//18 53//18 51//18
f 19//19 20//19 52//19 53//19
f 20//20 21//20 56//20 52//20
f 21//21 22//21 55//21 56//21
f 22//22 23//22 54//22 55//22
f 23//23 24//23 57//23 54//23
f 24//24 25//24 58//24 57//24
f 25//25 26//25 59//25 58//25
f 26//26 27//26 62//26 59//26
f 27//27 28//27 64//27 62//27
f 28//28 29//28 66//28 64//28
f 29//29 30//29 68//29 66//29
f 30//30 31//30 70//30 68//30
f 31//31 32//31 71//31 70//31
f 32//32 1//32 72//32 71//32
f 1//33 32//33 31//33 30//33 29//33 28//33 27//33 26//33 25//33 24//33 23//33 22//33 21//33 20//33 19//33 18//33 17//33 16//33 15//33 14//33 13//33 12//33 11//33 10//33 9//33 8//33 7//33 6//33 5//33 4//33 3//33 2//33
f 33//34 34//34 35//34 36//34
f 37//35 40//35 58//35 59//35 62//35 64//35 66//35 68//35 70//35 71//35 72//35 69//35 67//35 65//35 63//35 61//35 60//35 43//35 42//35
f 33//36 37//36 38//36 34//36
f 34//37 38//37 39//37 35//37
f 35//38 39//38 40//38 36//38
f 37//39 33//39 36//39 40//39
f 42//40 41//40 44//40 45//40 46//40 47//40 49//40 48//40 50//40 51//40 53//40 52//40 56//40 55//40 54//40 57//40 58//40 40//40 39//40 38//40 37//40
